# xmcd
#
# Track frame offsets:
#	150
#	21300
#	40485
#	58192
#	74520
#	98120
#	113300
#	128930
#	149732
#	169440
#	185530
#	202495
#	216750
#	233925
#	252570
#	270050
#	287180
#	304380
#	321742
#
# Disc length: 4545 seconds
#
# Revision: 0
# Processed by: cddbd v1.5.2PL0 Copyright (c) Steve Scherf et al.
# Submitted via: EasyCDDAExtractor 10.0.3.1
#
DISCID=3f11bf13
DTITLE=Various Artist - BRAVO HITS 1
DYEAR=1900
DGENRE=
TTITLE0=FUN FACTORY - I Wanna B With U
TTITLE1=DJ BOBO - Freedom
TTITLE2=BASS BUMPERS - Keep On Pushing
TTITLE3=CLOCK - Everybody
TTITLE4=STACHURSKY - Stay Baby
TTITLE5=WHIGFIELD - Big Time
TTITLE6=CORONA - Try Me Out
TTITLE7=2 UNLIMITED - Info Superhighway
TTITLE8=I&I - Feel The Rhytm
TTITLE9=T-SPOON - See The Light
TTITLE10=TWENTY 4 SEVEN - You Gotta Be Save
TTITLE11=XRAVE - Tatrzanski
TTITLE12=SCOOTER - Friends
TTITLE13=IMPERIO - Nostra Culpa
TTITLE14=CELVIN ROTANE - I Believe
TTITLE15=CAUGHT IN THE ACT - Let This Love Begin
TTITLE16=GOMPIE - Alice - Who The X Is Alice?
TTITLE17=T.O.F. - Jump Around
TTITLE18=THE OUTHERE BROTHERS - Boom Boom
EXTD=
EXTT0=
EXTT1=
EXTT2=
EXTT3=
EXTT4=
EXTT5=
EXTT6=
EXTT7=
EXTT8=
EXTT9=
EXTT10=
EXTT11=
EXTT12=
EXTT13=
EXTT14=
EXTT15=
EXTT16=
EXTT17=
EXTT18=
PLAYORDER=
